<svg xmlns="http://www.w3.org/2000/svg" version="1.1" xmlns:xlink="http://www.w3.org/1999/xlink" xmlns:svgjs="http://svgjs.dev/svgjs" width="1500" height="253" viewBox="0 0 1500 253"><g transform="matrix(1,0,0,1,-0.9090909090911055,-1.7710931251987603)"><svg viewBox="0 0 396 67" data-background-color="#ffffff" preserveAspectRatio="xMidYMid meet" height="253" width="1500" xmlns="http://www.w3.org/2000/svg" xmlns:xlink="http://www.w3.org/1999/xlink"><g id="tight-bounds" transform="matrix(1,0,0,1,0.24000000000003752,0.46902466161390066)"><svg viewBox="0 0 395.5199999999999 66.06195067677221" height="66.06195067677221" width="395.5199999999999"><g><svg viewBox="0 0 528.8579688925867 88.33279999999999" height="66.06195067677221" width="395.5199999999999"><g><rect width="7.92631150592" height="88.33279999999999" x="104.66215082666668" y="0" fill="#111111" opacity="1" stroke-width="0" stroke="transparent" fill-opacity="1" class="rect-yte-0" data-fill-palette-color="primary" rx="1%" id="yte-0" data-palette-color="#111111"></rect></g><g transform="matrix(1,0,0,1,133.33796889258667,0.21973333333333045)"><svg viewBox="0 0 395.52 87.89333333333333" height="87.89333333333333" width="395.52"><g id="textblocktransform"><svg viewBox="0 0 395.52 87.89333333333333" height="87.89333333333333" width="395.52" id="textblock"><g><svg viewBox="0 0 395.52 87.89333333333333" height="87.89333333333333" width="395.52"><g transform="matrix(1,0,0,1,0,0)"><svg width="395.52" viewBox="-0.85 -35.45 162.44 36.1" height="87.89333333333333" data-palette-color="#111111"><path d="M6.15 0L-0.85 0 13.9-35.45 14.4-35.45 29.2 0 22.4 0 20.45-5.05 8-5.05 6.15 0ZM14.1-22.2L13.3-19.4 9.8-9.9 18.6-9.9 14.95-19.4 14.1-22.2ZM41.85 0.6L41.85 0.6Q37.87 0.6 35.37-1.19 32.87-2.98 31.69-5.93 30.5-8.88 30.5-12.35L30.5-12.35Q30.5-15.8 31.82-18.8 33.15-21.8 35.75-23.65 38.35-25.5 42.2-25.5L42.2-25.5Q44.35-25.5 46.1-25.05 47.85-24.6 49.5-23.25L49.5-23.25 47.45-17.95Q46.7-19.07 45.26-19.69 43.82-20.3 42.55-20.3L42.55-20.3Q37.1-20.3 37.1-12.4L37.1-12.4Q37.1-8.25 38.46-6.38 39.82-4.5 42.55-4.5L42.55-4.5Q44.35-4.5 45.72-5.19 47.1-5.88 47.8-6.65L47.8-6.65 49.7-2.2Q49-1.45 46.95-0.43 44.9 0.6 41.85 0.6ZM64.7 0.65L64.7 0.65Q60.5 0.65 57.92-1.11 55.35-2.88 54.17-5.79 53-8.7 53-12.15L53-12.15Q53-15.78 54.33-18.81 55.67-21.85 58.26-23.68 60.85-25.5 64.59-25.5L64.59-25.5Q70.2-25.5 72.42-22.26 74.65-19.03 74.65-13.1L74.65-13.1Q74.65-12.58 74.62-11.78 74.59-10.98 74.55-10.4L74.55-10.4 59.55-10.4Q59.7-7.45 61.21-5.78 62.72-4.1 65.75-4.1L65.75-4.1Q67.3-4.1 69.07-4.79 70.84-5.48 71.7-6.45L71.7-6.45 73.7-1.7Q72.7-1.03 70.53-0.19 68.37 0.65 64.7 0.65ZM59.5-14.3L59.5-14.3 68.3-14.3Q68.3-16.93 67.83-18.31 67.37-19.7 66.57-20.23 65.77-20.75 64.75-20.75L64.75-20.75Q62.2-20.75 60.92-18.86 59.65-16.98 59.5-14.3ZM89.84 0L80.89 0 80.89-34.85 89.89-34.85Q97.47-34.85 101.58-30.61 105.69-26.38 105.69-17.85L105.69-17.85Q105.69-12.4 103.87-8.39 102.04-4.38 98.5-2.19 94.97 0 89.84 0L89.84 0ZM89.69-29.85L89.69-29.85 87.34-29.85 87.34-5.5 89.69-5.5Q92.44-5.5 94.27-6.54 96.09-7.58 97.18-9.31 98.27-11.05 98.73-13.24 99.19-15.43 99.19-17.7L99.19-17.7Q99.19-20.85 98.32-23.63 97.44-26.4 95.37-28.13 93.29-29.85 89.69-29.85ZM119.89 0.55L119.89 0.55Q116.22 0.55 113.47-0.68 110.72-1.9 109.44-3.25L109.44-3.25 111.99-8.5Q112.52-7.83 113.65-6.98 114.79-6.13 116.3-5.49 117.81-4.85 119.44-4.85L119.44-4.85Q121.31-4.85 122.7-5.9 124.09-6.95 124.09-9L124.09-9Q124.09-11.03 122.65-12.21 121.22-13.4 118.74-14.9L118.74-14.9Q116.72-16.13 114.77-17.51 112.81-18.9 111.53-20.91 110.24-22.93 110.24-26L110.24-26Q110.24-30.13 112.88-32.79 115.52-35.45 120.54-35.45L120.54-35.45Q123.09-35.45 124.88-34.85 126.66-34.25 127.78-33.48 128.89-32.7 129.44-32.2L129.44-32.2 126.64-27.1Q126.29-27.6 125.47-28.33 124.64-29.05 123.44-29.6 122.24-30.15 120.79-30.15L120.79-30.15Q118.77-30.15 117.75-28.99 116.74-27.83 116.74-26.25L116.74-26.25Q116.74-24.23 118.23-22.95 119.72-21.68 121.84-20.4L121.84-20.4Q124.19-19 126.19-17.59 128.19-16.18 129.41-14.21 130.64-12.25 130.64-9.2L130.64-9.2Q130.64-4.63 127.77-2.04 124.89 0.55 119.89 0.55ZM138.54 0L131.54 0 146.29-35.45 146.79-35.45 161.59 0 154.79 0 152.84-5.05 140.39-5.05 138.54 0ZM146.49-22.2L145.69-19.4 142.19-9.9 150.99-9.9 147.34-19.4 146.49-22.2Z" opacity="1" transform="matrix(1,0,0,1,0,0)" fill="#111111" class="wordmark-text-0" data-fill-palette-color="primary" id="text-0"></path></svg></g></svg></g></svg></g></svg></g><g transform="matrix(1,0,0,1,0,0.21973333333333045)"><svg viewBox="0 0 83.91264426666667 87.89333333333333" height="87.89333333333333" width="83.91264426666667"><g><svg version="1.0" xmlns="http://www.w3.org/2000/svg" xmlns:xlink="http://www.w3.org/1999/xlink" x="0" y="0" viewBox="0 0 95.471 100" enable-background="new 0 0 95.471 100" xml:space="preserve" id="icon-0" width="83.91264426666667" height="87.89333333333333" class="icon-icon-0" data-fill-palette-color="accent"><path d="M47.735 0C47.652 2.825 45.997 13.412 27.936 30.934 10.554 47.797 2.439 49.824 0 50 2.439 50.178 10.554 52.204 27.936 69.066 45.997 86.589 47.652 97.177 47.735 100 47.818 97.177 49.474 86.589 67.533 69.066 84.917 52.204 93.031 50.178 95.471 50 93.032 49.824 84.917 47.797 67.533 30.934 49.475 13.412 47.819 2.825 47.735 0" fill="#111111" data-fill-palette-color="accent"></path></svg></g></svg></g></svg></g><defs></defs></svg><rect width="395.5199999999999" height="66.06195067677221" fill="none" stroke="none" visibility="hidden"></rect></g></svg></g></svg>