<?xml version="1.0" encoding="UTF-8"?>
<svg version="1.1" xmlns="http://www.w3.org/2000/svg" width="808" height="528">
<path d="M0 0 C4.80501204 2.09073043 8.38329043 6.24948199 12.046875 9.890625 C13.23216797 11.03724609 13.23216797 11.03724609 14.44140625 12.20703125 C18.66012759 16.33950956 22.64654199 20.60845715 26.46875 25.109375 C27.91643141 26.74339164 29.42727601 28.18120613 31.046875 29.640625 C33.046875 31.890625 33.046875 31.890625 33.00390625 33.68310547 C31.60274372 36.9150727 29.23022417 39.05503892 26.734375 41.4609375 C26.20545654 41.98323944 25.67653809 42.50554138 25.1315918 43.04367065 C23.44364272 44.70824516 21.7458546 46.3623169 20.046875 48.015625 C18.34967172 49.67777003 16.65462384 51.34203389 14.9621582 53.00900269 C13.90915208 54.04502678 12.85308359 55.07794925 11.79370117 56.10745239 C9.0720495 58.73233037 9.0720495 58.73233037 7.046875 61.890625 C6.386875 61.890625 5.726875 61.890625 5.046875 61.890625 C5.046875 62.550625 5.046875 63.210625 5.046875 63.890625 C4.386875 63.890625 3.726875 63.890625 3.046875 63.890625 C3.046875 64.550625 3.046875 65.210625 3.046875 65.890625 C-0.66485063 67.56973898 -2.28034094 68.12351179 -6.203125 66.765625 C-8.97966797 64.87252752 -10.10322452 64.10136015 -10.953125 60.890625 C-10.52373427 56.75231871 -9.3308419 54.7520294 -6.4609375 51.7890625 C-5.75582031 51.05171875 -5.05070313 50.314375 -4.32421875 49.5546875 C-3.58300781 48.79929687 -2.84179688 48.04390625 -2.078125 47.265625 C-1.34464844 46.5025 -0.61117187 45.739375 0.14453125 44.953125 C5.38606517 39.51109525 5.38606517 39.51109525 7.74658203 37.29467773 C9.23935798 35.91081257 9.23935798 35.91081257 9.609375 33.58984375 C8.74965222 29.46436845 6.08757253 27.47331003 3.046875 24.703125 C1.00276435 22.79943186 -0.98399276 20.87440852 -2.953125 18.890625 C-2.953125 18.230625 -2.953125 17.570625 -2.953125 16.890625 C-3.613125 16.890625 -4.273125 16.890625 -4.953125 16.890625 C-7.43208159 14.87187075 -9.36751394 12.66814097 -10.953125 9.890625 C-10.55984191 5.95779408 -9.80502896 3.90028896 -7.265625 0.890625 C-4.69561385 -0.22073117 -2.76716483 -0.54397257 0 0 Z " fill="#FDFDFD" transform="translate(249.953125,228.109375)"/>
<path d="M0 0 C3.72310325 0.60301488 5.30843477 1.60823044 7.78710938 4.45141602 C8.53710938 7.70141602 8.53710938 7.70141602 7.78710938 11.45141602 C5.85490808 14.50792957 3.34840133 16.91491076 0.78710938 19.45141602 C-0.33341026 20.58350845 -1.45314145 21.71638159 -2.57226562 22.84985352 C-5.76535789 26.07137353 -8.98378693 29.26601447 -12.21289062 32.45141602 C-10.88649544 36.37588724 -9.30072099 38.71558027 -6.33398438 41.58813477 C-5.57794922 42.32999023 -4.82191406 43.0718457 -4.04296875 43.83618164 C-3.25341797 44.59608398 -2.46386719 45.35598633 -1.65039062 46.13891602 C-0.0845232 47.66153447 1.47938193 49.1861744 3.04101562 50.71313477 C3.73525635 51.38304443 4.42949707 52.0529541 5.14477539 52.74316406 C7.53940453 55.23390586 7.77293628 56.29834654 8.09960938 59.82641602 C7.78710938 63.45141602 7.78710938 63.45141602 6.16210938 65.88891602 C3.78710938 67.45141602 3.78710938 67.45141602 1.03710938 68.13891602 C-8.36391075 66.15023868 -17.06212788 53.71280689 -23.71289062 47.01391602 C-24.92880176 45.79297911 -26.14494578 44.57227409 -27.36132812 43.35180664 C-30.31454028 40.38767588 -33.26458461 37.42042643 -36.21289062 34.45141602 C-30.62105215 27.79465526 -24.65845307 21.57271916 -18.55419922 15.38769531 C-17.32037948 14.13211768 -16.09287408 12.87030563 -14.87158203 11.60253906 C-13.09340181 9.75757608 -11.29641386 7.93296939 -9.49414062 6.11157227 C-8.95333862 5.54293961 -8.41253662 4.97430695 -7.85534668 4.38844299 C-5.25158833 1.79855745 -3.68480922 0.51772129 0 0 Z " fill="#FDFDFD" transform="translate(173.212890625,227.548583984375)"/>
<path d="M0 0 C0 3.3 0 6.6 0 10 C-3.13765143 10.8097165 -5.91536757 11.00177184 -9.125 10.875 C-15.36708626 10.84373746 -21.9399011 11.62857306 -26.99609375 15.546875 C-30.2863882 19.11333325 -31.80278161 22.06954024 -32 27 C-32.0721875 27.6909375 -32.144375 28.381875 -32.21875 29.09375 C-32.58595761 34.45498116 -31.59516386 37.94454376 -28.484375 42.33984375 C-24.54807389 46.74228578 -19.65140271 47.54424172 -14 48 C-10.85598557 48.02017981 -7.71767981 48.00060587 -4.57421875 47.9375 C-2 48 -2 48 0 49 C0 52.3 0 55.6 0 59 C-25.89838641 59.82850288 -25.89838641 59.82850288 -35.9140625 51.38671875 C-42.37215487 44.97285989 -44.96797355 39.20790668 -45.1875 30.125 C-45.06401429 21.77736595 -42.41824843 14.49963722 -36.515625 8.48828125 C-26.39413026 -0.19846552 -13.0100827 -3.15395944 0 0 Z " fill="#FEFEFE" transform="translate(424,232)"/>
<path d="M0 0 C14.4910195 -0.29946998 26.32846453 -0.49307106 37.859375 9.6328125 C42.91942714 15.01851156 45.12504699 21.27776325 45.25 28.625 C45.18435959 30.08423675 45.10216079 31.54286455 45 33 C44.95875 34.155 44.9175 35.31 44.875 36.5 C43.03030103 43.87879588 38.21883473 49.73217225 32 54 C24.08095966 58.20921964 16.98682633 59.16013029 8.125 59.0625 C7.34125 59.05798828 6.5575 59.05347656 5.75 59.04882812 C3.83329986 59.03714093 1.91663952 59.01920908 0 59 C0 55.37 0 51.74 0 48 C1.44632812 47.97421875 2.89265625 47.9484375 4.3828125 47.921875 C6.29690452 47.86557818 8.21096585 47.8082312 10.125 47.75 C11.07632813 47.73582031 12.02765625 47.72164063 13.0078125 47.70703125 C18.96141616 47.5003089 22.43795177 46.91135989 27 43 C31.29854221 38.23675052 32.30024388 34.66871746 32.21875 28.4140625 C31.78098801 23.5830462 30.14901402 19.63513534 27.375 15.6875 C19.33531663 9.9750934 9.47779853 10.33724682 0 10 C0 6.7 0 3.4 0 0 Z " fill="#FEFEFE" transform="translate(502,232)"/>
<path d="M0 0 C1.43861294 0.08746284 2.87597508 0.19565348 4.3125 0.3125 C5.11300781 0.37050781 5.91351563 0.42851562 6.73828125 0.48828125 C9.53161652 1.12027939 10.45459437 1.57436332 12 4 C12.3586833 9.11249458 11.6641917 12.62446119 9.5859375 17.28125 C9.07498535 18.44599854 8.5640332 19.61074707 8.03759766 20.81079102 C7.48359447 22.04061567 6.92939169 23.27035043 6.375 24.5 C5.53699939 26.3944309 4.70328588 28.29070955 3.86984253 30.18714905 C3.06088489 32.02673497 2.24824773 33.86470142 1.43554688 35.70263672 C-0.2698959 39.61993436 -1.84725465 43.57347733 -3.375 47.5625 C-9.62430994 63.41620662 -9.62430994 63.41620662 -15 67 C-18.36187193 66.81989972 -20.99918142 66.58112046 -23.9375 64.875 C-25.65272386 61.84813437 -25.64394749 59.31836005 -25 56 C-23.85250365 52.85775193 -22.56551169 49.81918406 -21.19140625 46.76953125 C-20.21043493 44.48917497 -19.50246952 42.41993942 -19 40 C-18.34 40 -17.68 40 -17 40 C-16.89042969 39.40832031 -16.78085938 38.81664062 -16.66796875 38.20703125 C-16.43013672 37.02173828 -16.43013672 37.02173828 -16.1875 35.8125 C-16.03667969 35.03519531 -15.88585937 34.25789063 -15.73046875 33.45703125 C-14.88892309 30.62637768 -13.5333857 28.51886187 -12 26 C-11.16842926 23.95326297 -10.37876611 21.88915091 -9.625 19.8125 C-7.01647804 12.86957599 -4.12289011 6.18433517 0 0 Z " fill="#FEFEFE" transform="translate(217,228)"/>
<path d="M0 0 C1.65322266 0.01740234 1.65322266 0.01740234 3.33984375 0.03515625 C4.99693359 0.04869141 4.99693359 0.04869141 6.6875 0.0625 C7.54214844 0.07410156 8.39679688 0.08570313 9.27734375 0.09765625 C9.67566406 1.24363281 10.07398438 2.38960937 10.484375 3.5703125 C11.01940313 5.10030523 11.5545666 6.63025063 12.08984375 8.16015625 C12.48139648 9.2884082 12.48139648 9.2884082 12.88085938 10.43945312 C14.08100391 13.86208754 15.32567871 17.20984423 16.76171875 20.54296875 C18.63259946 24.93085907 20.17114994 29.39889911 21.71484375 33.91015625 C23.83640191 40.07192344 25.98802517 46.16968369 28.6484375 52.125 C29.41150219 54.51846378 29.38588427 56.60122434 29.27734375 59.09765625 C22.01504867 60.30803876 22.01504867 60.30803876 19.16796875 59.49609375 C16.42697801 57.46866672 15.89182449 55.29049296 14.77734375 52.09765625 C14.35582031 50.92589844 13.93429687 49.75414062 13.5 48.546875 C13.09652344 47.40863281 12.69304687 46.27039063 12.27734375 45.09765625 C11.60038206 43.36433675 10.91396561 41.63465683 10.21484375 39.91015625 C9.89515625 39.11222656 9.57546875 38.31429687 9.24609375 37.4921875 C8.58645949 35.86172057 7.9194928 34.23420529 7.24609375 32.609375 C5.20996729 27.65017306 3.48585431 22.700171 1.99609375 17.55078125 C0.36151769 11.97190208 -1.47365602 6.46065681 -3.72265625 1.09765625 C-2.72265625 0.09765625 -2.72265625 0.09765625 0 0 Z " fill="#FDFDFD" transform="translate(337.72265625,231.90234375)"/>
<path d="M0 0 C3.20417219 -0.17116304 5.94064528 -0.00856801 9 1 C10.20922852 2.72314453 10.20922852 2.72314453 11.06640625 4.9453125 C11.39044434 5.76217529 11.71448242 6.57903809 12.04833984 7.4206543 C12.3623877 8.27183838 12.67643555 9.12302246 13 10 C13.30244629 10.78608643 13.60489258 11.57217285 13.91650391 12.38208008 C14.86743046 14.89137013 15.78171597 17.41157649 16.6875 19.9375 C17.02201172 20.8646582 17.35652344 21.79181641 17.70117188 22.74707031 C20.51019357 30.56629 23.26550512 38.40444209 26 46.25 C26.39791748 47.38687256 26.79583496 48.52374512 27.20581055 49.69506836 C27.57101807 50.74960205 27.93622559 51.80413574 28.3125 52.890625 C28.80169922 54.29876465 28.80169922 54.29876465 29.30078125 55.73535156 C30 58 30 58 30 60 C26.04 60 22.08 60 18 60 C10.74806352 41.08430257 3.73182522 22.10777188 -3 3 C-2.01 2.67 -1.02 2.34 0 2 C0 1.34 0 0.68 0 0 Z " fill="#FEFEFE" transform="translate(645,231)"/>
<path d="M0 0 C0 3.63 0 7.26 0 11 C-1.423125 11.02578125 -2.84625 11.0515625 -4.3125 11.078125 C-6.20836266 11.13443775 -8.10419481 11.19178435 -10 11.25 C-10.93457031 11.26417969 -11.86914062 11.27835938 -12.83203125 11.29296875 C-18.95924599 11.50720703 -23.97059506 12.29976167 -29 16 C-32.87812872 20.91558991 -34.59688648 26.8189261 -35 33 C-38.63 33 -42.26 33 -46 33 C-48.0849273 28.8301454 -46.10495782 23.33818416 -45 19 C-41.62596153 11.47896152 -35.72523621 5.09294512 -28 2 C-18.81091384 -0.48695451 -9.42995739 -0.21540512 0 0 Z " fill="#FDFEFD" transform="translate(609,232)"/>
<path d="M0 0 C1 1 1 1 1.25 4 C1.04602871 12.32882773 -2.20078739 18.10841266 -7.8984375 24.0546875 C-17.34316882 32.79720832 -29.1873201 32.2865402 -41.31640625 32.16796875 C-45 32 -45 32 -46 31 C-46.35897436 24.53846154 -46.35897436 24.53846154 -44 21 C-41.97216797 20.64697266 -41.97216797 20.64697266 -39.4921875 20.6640625 C-38.13480469 20.64472656 -38.13480469 20.64472656 -36.75 20.625 C-34.85675471 20.625 -32.96349168 20.63261706 -31.0703125 20.6484375 C-24.52987578 20.53758264 -20.01857823 19.34020055 -15 15 C-11.91034036 10.5150102 -11.45716939 6.30316497 -11 1 C-7.11651516 -0.29449495 -4.09302664 -0.13203312 0 0 Z " fill="#FEFEFE" transform="translate(608,259)"/>
<path d="M0 0 C0.90726334 0.00202423 1.81452667 0.00404846 2.74928284 0.00613403 C3.67535843 0.00517731 4.60143402 0.00422058 5.55557251 0.00323486 C7.51849943 0.00255291 9.48142858 0.00440822 11.4443512 0.00857544 C14.45555171 0.01391746 17.46660265 0.00863406 20.47779846 0.00222778 C22.38079358 0.00288868 24.28378861 0.00417008 26.18678284 0.00613403 C27.54464149 0.00309769 27.54464149 0.00309769 28.92993164 0 C29.76742447 0.00315216 30.6049173 0.00630432 31.4677887 0.009552 C32.20645676 0.0103476 32.94512482 0.01114319 33.70617676 0.01196289 C35.53443909 0.13894653 35.53443909 0.13894653 37.53443909 1.13894653 C37.56133125 2.61801545 37.5807853 4.09722136 37.59693909 5.57644653 C37.60854065 6.40015747 37.62014221 7.22386841 37.63209534 8.07254028 C37.53443909 10.13894653 37.53443909 10.13894653 36.53443909 11.13894653 C35.18348927 11.23163652 33.82776818 11.2564198 32.47364807 11.25247192 C31.61283127 11.25239639 30.75201447 11.25232086 29.8651123 11.25224304 C28.92970108 11.24708176 27.99428986 11.24192047 27.03053284 11.23660278 C26.07751785 11.23518784 25.12450287 11.23377289 24.14260864 11.23231506 C21.08568743 11.22669805 18.02883832 11.21414269 14.97193909 11.20144653 C12.90488285 11.19643372 10.83782547 11.19187044 8.77076721 11.18777466 C3.69196321 11.1767231 -1.38678661 11.15944708 -6.46556091 11.13894653 C-8.09207613 7.8859161 -7.58009247 4.74669052 -7.46556091 1.13894653 C-5.52133039 -0.80528399 -2.5871617 0.00977436 0 0 Z " fill="#FEFEFE" transform="translate(447.46556091308594,279.8610534667969)"/>
<path d="M0 0 C0.33 0 0.66 0 1 0 C1.73642991 1.96888491 2.43777072 3.95090675 3.125 5.9375 C3.51945313 7.03964844 3.91390625 8.14179688 4.3203125 9.27734375 C5.87350517 17.78419787 1.73184976 25.70893914 -1.5 33.4375 C-1.90347656 34.42943359 -2.30695312 35.42136719 -2.72265625 36.44335938 C-5.73456555 43.73456555 -5.73456555 43.73456555 -8 46 C-10.6015625 46.1953125 -10.6015625 46.1953125 -13.625 46.125 C-14.62789062 46.10695313 -15.63078125 46.08890625 -16.6640625 46.0703125 C-17.82035156 46.03550781 -17.82035156 46.03550781 -19 46 C-16.90164861 38.13578393 -13.95548971 30.67913093 -10.81152344 23.18505859 C-9.99643819 21.24150695 -9.18906791 19.29488522 -8.3828125 17.34765625 C-1.99255569 1.99255569 -1.99255569 1.99255569 0 0 Z " fill="#FDFDFD" transform="translate(638,245)"/>
<path d="M0 0 C0.99 0 1.98 0 3 0 C3.48212214 1.56159059 3.96055873 3.12431928 4.4375 4.6875 C4.70433594 5.55761719 4.97117187 6.42773438 5.24609375 7.32421875 C5.49488281 8.20722656 5.74367188 9.09023437 6 10 C6.39251953 11.16982422 6.39251953 11.16982422 6.79296875 12.36328125 C7.09587267 16.22101983 5.50790793 19.10810504 3.875 22.5 C3.22144078 23.91681014 2.57043379 25.33480015 1.921875 26.75390625 C1.59638672 27.4617627 1.27089844 28.16961914 0.93554688 28.89892578 C-0.91974521 33.06558645 -2.47028967 37.34531814 -4.0546875 41.62109375 C-5 44 -5 44 -6 45 C-7.85287502 45.07226502 -9.70833878 45.0838122 -11.5625 45.0625 C-12.57441406 45.05347656 -13.58632813 45.04445313 -14.62890625 45.03515625 C-15.80259766 45.01775391 -15.80259766 45.01775391 -17 45 C-17 40.8648766 -15.34525124 37.55177953 -13.7890625 33.7890625 C-13.46086517 32.98391205 -13.13266785 32.1787616 -12.79452515 31.34921265 C-11.74290162 28.77244648 -10.68408362 26.19870775 -9.625 23.625 C-8.918789 21.89863453 -8.21305419 20.17207418 -7.5078125 18.4453125 C-6.20951783 15.26781306 -4.90825596 12.09156234 -3.60400391 8.91650391 C-2.38673314 5.95057974 -1.18368827 2.97952725 0 0 Z " fill="#FEFEFE" transform="translate(329,246)"/>
<path d="M0 0 C0.90726334 0.00202423 1.81452667 0.00404846 2.74928284 0.00613403 C3.67535843 0.00517731 4.60143402 0.00422058 5.55557251 0.00323486 C7.51849943 0.00255291 9.48142858 0.00440822 11.4443512 0.00857544 C14.45555171 0.01391746 17.46660265 0.00863406 20.47779846 0.00222778 C22.38079358 0.00288868 24.28378861 0.00417008 26.18678284 0.00613403 C27.54464149 0.00309769 27.54464149 0.00309769 28.92993164 0 C29.76742447 0.00315216 30.6049173 0.00630432 31.4677887 0.009552 C32.20645676 0.0103476 32.94512482 0.01114319 33.70617676 0.01196289 C35.53443909 0.13894653 35.53443909 0.13894653 37.53443909 1.13894653 C37.53443909 4.43894653 37.53443909 7.73894653 37.53443909 11.13894653 C23.01443909 11.13894653 8.49443909 11.13894653 -6.46556091 11.13894653 C-6.79556091 7.83894653 -7.12556091 4.53894653 -7.46556091 1.13894653 C-5.52133039 -0.80528399 -2.5871617 0.00977436 0 0 Z " fill="#FDFDFD" transform="translate(447.46556091308594,231.86105346679688)"/>
<path d="M0 0 C1.64510941 0.00015915 3.29022379 0.00585551 4.93530273 0.01586914 C6.23164894 0.01799156 6.23164894 0.01799156 7.55418396 0.02015686 C10.32578941 0.025773 13.09731528 0.0383282 15.86889648 0.05102539 C17.74324428 0.05603831 19.61759334 0.06060158 21.49194336 0.06469727 C26.09679192 0.07574767 30.70158069 0.09302309 35.30639648 0.11352539 C35.30639648 3.41352539 35.30639648 6.71352539 35.30639648 10.11352539 C22.43639648 10.11352539 9.56639648 10.11352539 -3.69360352 10.11352539 C-4.02360352 7.14352539 -4.35360352 4.17352539 -4.69360352 1.11352539 C-3.69360352 0.11352539 -3.69360352 0.11352539 0 0 Z " fill="#FEFEFE" transform="translate(444.693603515625,255.886474609375)"/>
</svg>
